<svg
  aria-label="Pinterest logo"
  fill="none"
  height="18"
  role="img"
  viewBox="0 0 18 18"
  width="18"
  xmlns="http://www.w3.org/2000/svg"
>
  <circle cx="9" cy="9" r="9" fill="white" />
  <path
    d="M5.69373 17.3488C5.58145 16.327 5.66114 15.3484 5.8857 14.4022L6.7912 10.5237C6.6427 10.0524 6.53042 9.51268 6.53042 8.97302C6.53042 7.71376 7.14253 6.81431 8.10236 6.81431C8.76878 6.81431 9.25776 7.27483 9.25776 8.16349C9.25776 8.44414 9.1998 8.76074 9.08752 9.12053L8.69274 10.4121C8.61305 10.6604 8.58046 10.8943 8.58046 11.0993C8.58046 11.9988 9.27225 12.5061 10.1524 12.5061C11.7243 12.5061 12.8471 10.8871 12.8471 8.78593C12.8471 6.44733 11.3078 4.95063 9.0332 4.95063C6.49781 4.95063 4.88966 6.59124 4.88966 8.87587C4.88966 9.79693 5.17218 10.6532 5.72635 11.236C5.54524 11.5383 5.35327 11.5958 5.0599 11.5958C4.15441 11.5958 3.29237 10.3258 3.29237 8.59525C3.29237 5.60545 5.7046 3.22007 9.08752 3.22007C12.6407 3.22007 14.8718 5.681 14.8718 8.71758C14.8718 11.7757 12.6986 14.0712 10.3552 14.0712C9.42799 14.0712 8.61305 13.679 8.0444 12.9702L7.58079 14.8375C7.33088 15.8053 6.9578 16.7156 6.35656 17.5934C7.20411 17.8525 8.0444 18 9.05131 18C14.0532 18 18.1062 13.974 18.1062 9.0054C18.1062 4.03677 14.0569 0 9.05493 0C4.05299 0 0 4.02599 0 8.9946C0 12.7616 2.33256 16.0104 5.69373 17.3488Z"
    fill="#E60023"
  />
</svg>
